<svg width="400" height="400" viewBox="0 0 400 400" fill="none" xmlns="http://www.w3.org/2000/svg">
<path d="M162.5 0C152.554 0 143.016 3.95088 135.983 10.9835C128.951 18.0161 125 27.5544 125 37.5V62.5C125 72.4456 128.951 81.9839 135.983 89.0165C143.016 96.0491 152.554 100 162.5 100H237.5C247.446 100 256.984 96.0491 264.017 89.0165C271.049 81.9839 275 72.4456 275 62.5V37.5C275 27.5544 271.049 18.0161 264.017 10.9835C256.984 3.95088 247.446 0 237.5 0L162.5 0ZM237.5 25C240.815 25 243.995 26.317 246.339 28.6612C248.683 31.0054 250 34.1848 250 37.5V62.5C250 65.8152 248.683 68.9946 246.339 71.3388C243.995 73.683 240.815 75 237.5 75H162.5C159.185 75 156.005 73.683 153.661 71.3388C151.317 68.9946 150 65.8152 150 62.5V37.5C150 34.1848 151.317 31.0054 153.661 28.6612C156.005 26.317 159.185 25 162.5 25H237.5Z" fill="#E7F1FF"/>
<path d="M100 37.5H75C61.7392 37.5 49.0215 42.7678 39.6447 52.1447C30.2678 61.5215 25 74.2392 25 87.5V350C25 363.261 30.2678 375.979 39.6447 385.355C49.0215 394.732 61.7392 400 75 400H325C338.261 400 350.979 394.732 360.355 385.355C369.732 375.979 375 363.261 375 350V87.5C375 74.2392 369.732 61.5215 360.355 52.1447C350.979 42.7678 338.261 37.5 325 37.5H300V62.5C300 70.7076 298.383 78.8349 295.242 86.4177C292.102 94.0006 287.498 100.891 281.694 106.694C275.891 112.498 269.001 117.102 261.418 120.242C253.835 123.383 245.708 125 237.5 125H162.5C145.924 125 130.027 118.415 118.306 106.694C106.585 94.9731 100 79.076 100 62.5V37.5ZM271.35 221.35L196.35 296.35C195.189 297.514 193.809 298.438 192.291 299.068C190.772 299.698 189.144 300.022 187.5 300.022C185.856 300.022 184.228 299.698 182.709 299.068C181.191 298.438 179.811 297.514 178.65 296.35L141.15 258.85C138.803 256.503 137.484 253.319 137.484 250C137.484 246.681 138.803 243.497 141.15 241.15C143.497 238.803 146.681 237.484 150 237.484C153.319 237.484 156.503 238.803 158.85 241.15L187.5 269.825L253.65 203.65C255.997 201.303 259.181 199.984 262.5 199.984C265.819 199.984 269.003 201.303 271.35 203.65C273.697 205.997 275.016 209.181 275.016 212.5C275.016 215.819 273.697 219.003 271.35 221.35V221.35Z" fill="#E7F1FF"/>
</svg>
