<svg width="400" height="300" viewBox="0 0 400 300" fill="none" xmlns="http://www.w3.org/2000/svg">
<path d="M0 50C0 36.7392 5.26784 24.0215 14.6447 14.6447C24.0215 5.26784 36.7392 0 50 0H350C363.261 0 375.979 5.26784 385.355 14.6447C394.732 24.0215 400 36.7392 400 50V250C400 263.261 394.732 275.979 385.355 285.355C375.979 294.732 363.261 300 350 300H50C36.7392 300 24.0215 294.732 14.6447 285.355C5.26784 275.979 0 263.261 0 250V50ZM62.5 75C59.1848 75 56.0054 76.317 53.6612 78.6612C51.317 81.0054 50 84.1848 50 87.5V112.5C50 115.815 51.317 118.995 53.6612 121.339C56.0054 123.683 59.1848 125 62.5 125H112.5C115.815 125 118.995 123.683 121.339 121.339C123.683 118.995 125 115.815 125 112.5V87.5C125 84.1848 123.683 81.0054 121.339 78.6612C118.995 76.317 115.815 75 112.5 75H62.5ZM62.5 150C59.1848 150 56.0054 151.317 53.6612 153.661C51.317 156.005 50 159.185 50 162.5C50 165.815 51.317 168.995 53.6612 171.339C56.0054 173.683 59.1848 175 62.5 175H187.5C190.815 175 193.995 173.683 196.339 171.339C198.683 168.995 200 165.815 200 162.5C200 159.185 198.683 156.005 196.339 153.661C193.995 151.317 190.815 150 187.5 150H62.5ZM62.5 200C59.1848 200 56.0054 201.317 53.6612 203.661C51.317 206.005 50 209.185 50 212.5C50 215.815 51.317 218.995 53.6612 221.339C56.0054 223.683 59.1848 225 62.5 225H87.5C90.8152 225 93.9946 223.683 96.3388 221.339C98.683 218.995 100 215.815 100 212.5C100 209.185 98.683 206.005 96.3388 203.661C93.9946 201.317 90.8152 200 87.5 200H62.5ZM137.5 200C134.185 200 131.005 201.317 128.661 203.661C126.317 206.005 125 209.185 125 212.5C125 215.815 126.317 218.995 128.661 221.339C131.005 223.683 134.185 225 137.5 225H162.5C165.815 225 168.995 223.683 171.339 221.339C173.683 218.995 175 215.815 175 212.5C175 209.185 173.683 206.005 171.339 203.661C168.995 201.317 165.815 200 162.5 200H137.5ZM212.5 200C209.185 200 206.005 201.317 203.661 203.661C201.317 206.005 200 209.185 200 212.5C200 215.815 201.317 218.995 203.661 221.339C206.005 223.683 209.185 225 212.5 225H237.5C240.815 225 243.995 223.683 246.339 221.339C248.683 218.995 250 215.815 250 212.5C250 209.185 248.683 206.005 246.339 203.661C243.995 201.317 240.815 200 237.5 200H212.5ZM287.5 200C284.185 200 281.005 201.317 278.661 203.661C276.317 206.005 275 209.185 275 212.5C275 215.815 276.317 218.995 278.661 221.339C281.005 223.683 284.185 225 287.5 225H312.5C315.815 225 318.995 223.683 321.339 221.339C323.683 218.995 325 215.815 325 212.5C325 209.185 323.683 206.005 321.339 203.661C318.995 201.317 315.815 200 312.5 200H287.5Z" fill="#E7F1FF"/>
</svg>
