<svg width="400" height="400" viewBox="0 0 400 400" fill="none" xmlns="http://www.w3.org/2000/svg">
<g clip-path="url(#clip0_13_2)">
<path d="M7.51571e-05 62.5C7.51571e-05 52.5544 3.95096 43.0161 10.9836 35.9835C18.0162 28.9509 27.5545 25 37.5001 25H312.5C322.446 25 331.984 28.9509 339.017 35.9835C346.049 43.0161 350 52.5544 350 62.5V325.7C350 333.2 348.75 342.05 344.05 350H362.5C365.815 350 368.995 348.683 371.339 346.339C373.683 343.995 375 340.815 375 337.5V112.5C375 109.185 376.317 106.005 378.661 103.661C381.005 101.317 384.185 100 387.5 100C390.815 100 393.995 101.317 396.339 103.661C398.683 106.005 400 109.185 400 112.5V337.5C400 347.446 396.049 356.984 389.017 364.017C381.984 371.049 372.446 375 362.5 375H37.4251C32.504 375 27.6313 374.03 23.0858 372.144C18.5403 370.259 14.4113 367.495 10.9351 364.012C7.45884 360.529 4.70369 356.394 2.82733 351.845C0.950962 347.296 -0.00978664 342.421 7.51571e-05 337.5V62.5ZM300 350C309.25 350 316.35 344.725 321.325 338.975C323.625 336.325 325 332 325 325.7V62.5C325 59.1848 323.683 56.0054 321.339 53.6612C318.995 51.317 315.815 50 312.5 50H37.5001C34.1849 50 31.0054 51.317 28.6612 53.6612C26.317 56.0054 25.0001 59.1848 25.0001 62.5V337.5C25.0001 344.45 30.5751 350 37.4251 350H300Z" fill="#E7F1FF"/>
<path d="M50 75H300V125H50V75ZM50 150H150V225H50V150ZM50 250H150V275H50V250ZM50 300H150V325H50V300ZM175 150H225V175H175V150ZM250 150H300V175H250V150ZM175 200H225V225H175V200ZM250 200H300V225H250V200ZM175 250H225V275H175V250ZM250 250H300V275H250V250ZM175 300H225V325H175V300ZM250 300H300V325H250V300Z" fill="#E7F1FF"/>
</g>
<defs>
<clipPath id="clip0_13_2">
<rect width="400" height="400" fill="white"/>
</clipPath>
</defs>
</svg>
