<svg width="749" height="717" viewBox="0 0 749 717" fill="none" xmlns="http://www.w3.org/2000/svg">
<path d="M121.875 0H528.125C549.674 0 570.34 8.56024 585.577 23.7976C600.815 39.0349 609.375 59.7012 609.375 81.25V568.75C609.375 590.299 600.815 610.965 585.577 626.202C570.34 641.44 549.674 650 528.125 650H121.875C100.326 650 79.6599 641.44 64.4226 626.202C49.1852 610.965 40.625 590.299 40.625 568.75V528.125H81.25V568.75C81.25 579.524 85.5301 589.858 93.1488 597.476C100.767 605.095 111.101 609.375 121.875 609.375H528.125C538.899 609.375 549.233 605.095 556.851 597.476C564.47 589.858 568.75 579.524 568.75 568.75V81.25C568.75 70.4756 564.47 60.1425 556.851 52.5238C549.233 44.9051 538.899 40.625 528.125 40.625H121.875C111.101 40.625 100.767 44.9051 93.1488 52.5238C85.5301 60.1425 81.25 70.4756 81.25 81.25V121.875H40.625V81.25C40.625 59.7012 49.1852 39.0349 64.4226 23.7976C79.6599 8.56024 100.326 0 121.875 0V0Z" fill="white"/>
<path d="M40.625 203.125V182.812C40.625 177.425 42.7651 172.259 46.5744 168.449C50.3837 164.64 55.5503 162.5 60.9375 162.5C66.3247 162.5 71.4913 164.64 75.3006 168.449C79.1099 172.259 81.25 177.425 81.25 182.812V203.125H101.562C106.95 203.125 112.116 205.265 115.926 209.074C119.735 212.884 121.875 218.05 121.875 223.438C121.875 228.825 119.735 233.991 115.926 237.801C112.116 241.61 106.95 243.75 101.562 243.75H20.3125C14.9253 243.75 9.75873 241.61 5.94939 237.801C2.14006 233.991 0 228.825 0 223.438C0 218.05 2.14006 212.884 5.94939 209.074C9.75873 205.265 14.9253 203.125 20.3125 203.125H40.625ZM40.625 325V304.688C40.625 299.3 42.7651 294.134 46.5744 290.324C50.3837 286.515 55.5503 284.375 60.9375 284.375C66.3247 284.375 71.4913 286.515 75.3006 290.324C79.1099 294.134 81.25 299.3 81.25 304.688V325H101.562C106.95 325 112.116 327.14 115.926 330.949C119.735 334.759 121.875 339.925 121.875 345.312C121.875 350.7 119.735 355.866 115.926 359.676C112.116 363.485 106.95 365.625 101.562 365.625H20.3125C14.9253 365.625 9.75873 363.485 5.94939 359.676C2.14006 355.866 0 350.7 0 345.312C0 339.925 2.14006 334.759 5.94939 330.949C9.75873 327.14 14.9253 325 20.3125 325H40.625ZM40.625 446.875V426.562C40.625 421.175 42.7651 416.009 46.5744 412.199C50.3837 408.39 55.5503 406.25 60.9375 406.25C66.3247 406.25 71.4913 408.39 75.3006 412.199C79.1099 416.009 81.25 421.175 81.25 426.562V446.875H101.562C106.95 446.875 112.116 449.015 115.926 452.824C119.735 456.634 121.875 461.8 121.875 467.188C121.875 472.575 119.735 477.741 115.926 481.551C112.116 485.36 106.95 487.5 101.562 487.5H20.3125C14.9253 487.5 9.75873 485.36 5.94939 481.551C2.14006 477.741 0 472.575 0 467.188C0 461.8 2.14006 456.634 5.94939 452.824C9.75873 449.015 14.9253 446.875 20.3125 446.875H40.625Z" fill="white"/>
<path d="M169.392 184.309L194.616 122.865C204.272 99.3225 230.313 83.5625 259.558 83.5625H389.442C418.687 83.5625 444.707 99.3225 454.384 122.865L479.615 184.309C496.245 190.178 508 204.178 508 220.5V337.875C508 348.696 497.75 357.438 485.062 357.438H462.125C449.438 357.438 439.188 348.696 439.188 337.875V308.531H209.812V337.875C209.812 348.696 199.541 357.438 186.875 357.438H163.938C151.272 357.438 141 348.696 141 337.875V220.5C141 204.178 152.727 190.178 169.392 184.309ZM219.203 181.375H429.797L411.089 135.77C407.863 127.945 399.19 122.688 389.442 122.688H259.558C249.81 122.688 241.137 127.945 237.911 135.77L219.203 181.375ZM209.812 220.5C197.147 220.5 186.875 229.242 186.875 240.062C186.875 250.883 197.147 259.625 209.812 259.625C222.5 259.625 232.75 250.883 232.75 240.062C232.75 229.242 222.5 220.5 209.812 220.5ZM439.188 259.625C451.875 259.625 462.125 250.883 462.125 240.062C462.125 229.242 451.875 220.5 439.188 220.5C426.5 220.5 416.25 229.242 416.25 240.062C416.25 250.883 426.5 259.625 439.188 259.625Z" fill="#D54B4B"/>
<rect x="141" y="407" width="367" height="40" rx="20" fill="white"/>
<rect x="141" y="507" width="367" height="40" rx="20" fill="white"/>
<circle cx="579" cy="547" r="170" fill="white"/>
<path d="M749 547C749 592.087 731.089 635.327 699.208 667.208C667.327 699.089 624.087 717 579 717C533.913 717 490.673 699.089 458.792 667.208C426.911 635.327 409 592.087 409 547C409 501.913 426.911 458.673 458.792 426.792C490.673 394.911 533.913 377 579 377C624.087 377 667.327 394.911 699.208 426.792C731.089 458.673 749 501.913 749 547V547ZM664.637 482.612C663.12 481.1 661.312 479.909 659.324 479.111C657.335 478.313 655.206 477.924 653.063 477.968C650.921 478.011 648.809 478.486 646.854 479.365C644.9 480.243 643.143 481.507 641.687 483.08L567.886 577.111L523.41 532.614C520.389 529.799 516.393 528.266 512.264 528.339C508.135 528.412 504.196 530.084 501.276 533.004C498.356 535.924 496.683 539.864 496.61 543.993C496.537 548.122 498.07 552.118 500.885 555.139L557.112 611.387C558.627 612.899 560.431 614.091 562.416 614.891C564.401 615.69 566.527 616.082 568.667 616.042C570.807 616.003 572.917 615.533 574.871 614.66C576.825 613.787 578.584 612.53 580.041 610.963L664.871 504.925C667.763 501.918 669.361 497.897 669.321 493.725C669.281 489.554 667.607 485.564 664.659 482.612H664.637Z" fill="#4ED172"/>
</svg>
